# xmcd
#
# Track frame offsets: 
#        150
#        9284
#        20330
#        31837
#        46741
#        57394
#        69708
#        83609
#        94193
#        106703
#        120712
#        131919
#        144397
#        160172
#
# Disc length: 2296 seconds
#
# Revision: 2
# Processed by: cddbd v1.5.1PL2 Copyright (c) Steve Scherf et al.
# Submitted via: ExactAudioCopy v0.95b3
#
DISCID=ab08f60e
DTITLE=Dave Stuckey and the Rhythm Gang - Get a Load of This
DYEAR=2000
DGENRE=Western Swing
TTITLE0=(Ol' Daddy's Got a) Brand New Love
TTITLE1=You Better Wake Up Babe
TTITLE2=They Did the Boogie
TTITLE3=Nobody's Sweetheart
TTITLE4=I'll Take My Old Guitar
TTITLE5=Pick-A-Rib, Pt. 1
TTITLE6=Whose Honey Are You?
TTITLE7=Coyote Blues
TTITLE8=You Shoulda Thought of That
TTITLE9=Lookin' Around
TTITLE10=Kansas City Kitty
TTITLE11=Hitch My Wagon
TTITLE12=Some of These Days
TTITLE13=Beauty Is as Beauty Does
EXTD=CD: HMG/Hightone HMG3010 (2000-03-21), UPC 012928301022.
EXTT0=
EXTT1=
EXTT2=
EXTT3=
EXTT4=
EXTT5=
EXTT6=
EXTT7=
EXTT8=
EXTT9=
EXTT10=
EXTT11=
EXTT12=
EXTT13=
PLAYORDER=
